<svg xmlns="http://www.w3.org/2000/svg" width="43.342" height="43.342" viewBox="0 0 43.342 43.342"><defs><style>.a{fill:#1e88c4;}.b{fill:#fff;}</style></defs><g transform="translate(-658 -3480)"><g transform="translate(658 3480)"><path class="a" d="M553.823,21.67a21.671,21.671,0,1,0-25.057,21.408V27.935h-5.5V21.67h5.5V16.9c0-5.43,3.235-8.43,8.186-8.43a33.384,33.384,0,0,1,4.851.422v5.333H539.07c-2.692,0-3.532,1.67-3.532,3.385V21.67h6.01l-.96,6.265h-5.05V43.078A21.677,21.677,0,0,0,553.823,21.67Z" transform="translate(-510.481)"/><path class="b" d="M536.429,25.181l.96-6.265h-6.01V14.852c0-1.715.84-3.385,3.532-3.385h2.733V6.134a33.384,33.384,0,0,0-4.851-.422c-4.95,0-8.186,3-8.186,8.43v4.774h-5.5v6.265h5.5V40.324a21.86,21.86,0,0,0,6.772,0V25.181Z" transform="translate(-506.323 2.754)"/></g></g></svg>