<svg xmlns="http://www.w3.org/2000/svg" width="43.341" height="43.341" viewBox="0 0 43.341 43.341"><defs><style>.a{fill:#1e88c4;}.b{fill:#fff;}</style></defs><g transform="translate(-720.62 -3480)"><circle class="a" cx="21.671" cy="21.671" r="21.671" transform="translate(720.62 3480)"/><g transform="translate(729.586 3488.936)"><path class="b" d="M572.375,9.09a1.49,1.49,0,1,0,1.49,1.49A1.49,1.49,0,0,0,572.375,9.09Z" transform="translate(-552.945 -4.553)"/><path class="b" d="M569.458,10.379a6.257,6.257,0,1,0,6.258,6.257A6.265,6.265,0,0,0,569.458,10.379Zm0,10.265a4.008,4.008,0,1,1,4.008-4.008A4.012,4.012,0,0,1,569.458,20.644Z" transform="translate(-556.65 -3.932)"/><path class="b" d="M576.558,31.438H566.412a7.641,7.641,0,0,1-7.631-7.633V13.66a7.64,7.64,0,0,1,7.631-7.631h10.145a7.64,7.64,0,0,1,7.631,7.631V23.806A7.641,7.641,0,0,1,576.558,31.438ZM566.412,8.42a5.246,5.246,0,0,0-5.241,5.241V23.806a5.247,5.247,0,0,0,5.241,5.242h10.145a5.248,5.248,0,0,0,5.242-5.242V13.66a5.248,5.248,0,0,0-5.242-5.241Z" transform="translate(-558.781 -6.029)"/></g></g></svg>