<svg xmlns="http://www.w3.org/2000/svg" width="43.341" height="43.341" viewBox="0 0 43.341 43.341"><defs><style>.a{fill:#1e88c4;}.b{fill:#fff;}</style></defs><g transform="translate(-845.859 -3480)"><circle class="a" cx="21.671" cy="21.671" r="21.671" transform="translate(845.859 3480)"/><path class="b" d="M645.829,14.077h4.2V27.56h-4.2Zm2.1-6.7A2.43,2.43,0,1,1,645.5,9.806a2.429,2.429,0,0,1,2.432-2.428" transform="translate(212.612 3483.557)"/><path class="b" d="M650.327,12.006h4.019v1.845h.055a4.409,4.409,0,0,1,3.969-2.179c4.243,0,5.026,2.791,5.026,6.422v7.394h-4.189V18.935c0-1.565-.031-3.576-2.179-3.576-2.18,0-2.514,1.7-2.514,3.461v6.67h-4.188Z" transform="translate(214.941 3485.628)"/></g></svg>