<svg xmlns="http://www.w3.org/2000/svg" width="43.341" height="43.341" viewBox="0 0 43.341 43.341"><defs><style>.a{fill:#1e88c4;}.b{fill:#fff;}</style></defs><g transform="translate(-783.239 -3480)"><circle class="a" cx="21.671" cy="21.671" r="21.671" transform="translate(783.239 3480)"/><path class="b" d="M625.338,10.369a9.64,9.64,0,0,1-2.389.682c.384-.064.949-.76,1.175-1.042a4.366,4.366,0,0,0,.793-1.447c.021-.041.036-.093-.006-.124a.134.134,0,0,0-.126.012,12.268,12.268,0,0,1-2.834,1.083.189.189,0,0,1-.2-.052,2.362,2.362,0,0,0-.248-.253,5.018,5.018,0,0,0-1.374-.84,4.777,4.777,0,0,0-2.1-.339,5.017,5.017,0,0,0-2,.565,5.145,5.145,0,0,0-1.611,1.316,4.929,4.929,0,0,0-.962,1.927,5.227,5.227,0,0,0-.052,2.035c.015.114.006.129-.1.114a15.141,15.141,0,0,1-9.738-4.956c-.114-.13-.175-.13-.268.009a4.937,4.937,0,0,0,.842,5.835c.19.181.387.362.6.526a4.957,4.957,0,0,1-1.878-.526c-.114-.073-.172-.031-.181.1a3.014,3.014,0,0,0,.03.559,5,5,0,0,0,3.078,3.979,2.841,2.841,0,0,0,.624.191,5.539,5.539,0,0,1-1.842.058c-.135-.027-.187.04-.135.17a5.183,5.183,0,0,0,3.873,3.241c.175.031.351.031.526.073-.01.016-.021.016-.031.031-.434.663-1.942,1.156-2.644,1.4a9.441,9.441,0,0,1-4.016.514c-.215-.031-.261-.028-.32,0s-.007.089.062.145c.274.181.553.341.837.5a13.2,13.2,0,0,0,2.684,1.075,14.3,14.3,0,0,0,13.882-3.246c2.846-2.826,3.843-6.724,3.843-10.628,0-.153.179-.237.287-.317a9.35,9.35,0,0,0,1.888-1.965.594.594,0,0,0,.126-.376v-.021C625.436,10.307,625.434,10.326,625.338,10.369Z" transform="translate(191.545 3483.875)"/></g></svg>