<svg xmlns="http://www.w3.org/2000/svg" width="249" height="66" viewBox="0 0 249 66"><defs><style>.a,.b{fill:#fff;}.b{stroke:#c7c7c7;stroke-width:1.5px;}.c{fill:#1565c0;}.d{fill:#2196f3;}.e{fill:#64b5f6;}.f{fill:#464646;}.g{stroke:none;}.h{fill:none;}</style></defs><g transform="translate(-368 -2172)"><rect class="a" width="249" height="66" rx="10" transform="translate(368 2172)"/><g class="b" transform="translate(382 2190)"><rect class="g" width="30" height="30" rx="6"/><rect class="h" x="0.75" y="0.75" width="28.5" height="28.5" rx="5.25"/></g><g transform="translate(554.289 2181.017)"><path class="c" d="M3544.446,1778.284h-2.795l7.964,9.5,7.963-9.5h-2.95a22.969,22.969,0,0,0-21.89-22.943v10.2A12.786,12.786,0,0,1,3544.446,1778.284Z" transform="translate(-3506.722 -1752.4)"/><path class="d" d="M3406.532,1749.464h0v2.8l9.5-7.964-9.5-7.964v2.95h0a22.97,22.97,0,0,0-22.943,21.89h10.2A12.786,12.786,0,0,1,3406.532,1749.464Z" transform="translate(-3380.647 -1736.332)"/><path class="e" d="M3377.711,1845.744h2.8l-7.964-9.5-7.964,9.5h2.95a22.969,22.969,0,0,0,21.89,22.943v-10.2A12.787,12.787,0,0,1,3377.711,1845.744Z" transform="translate(-3364.579 -1820.784)"/></g><g transform="translate(426.059 2198.249)"><rect class="f" width="1.622" height="12.564" transform="translate(0 0.671)"/><path class="f" d="M2533.925,1855.266l1.044-.131a21.544,21.544,0,0,0,1.752-4.418l-1.7.168A26.32,26.32,0,0,1,2533.925,1855.266Z" transform="translate(-2530.344 -1850.252)"/><path class="f" d="M2568.388,1873.611a3.076,3.076,0,0,0-1.994.634,3.712,3.712,0,0,0-1.006,1.174h-.037a2.667,2.667,0,0,0-2.554-1.808,3.11,3.11,0,0,0-2.834,1.659h-.056l-.074-1.454H2558.4c.056.745.074,1.509.074,2.441v6.581h1.6v-5.443a2.274,2.274,0,0,1,.131-.8,2.242,2.242,0,0,1,2.032-1.641c1.248,0,1.882,1.044,1.882,2.479v5.406h1.6v-5.573a2.706,2.706,0,0,1,.131-.82,2.123,2.123,0,0,1,1.938-1.491c1.324,0,1.958,1.044,1.958,2.778v5.107h1.6v-5.312C2571.353,1874.393,2569.581,1873.611,2568.388,1873.611Z" transform="translate(-2551.029 -1869.603)"/><path class="f" d="M2689.056,1873.611a3.318,3.318,0,0,0-2.983,1.7h-.038l-.093-1.491h-1.454c.056.745.074,1.509.074,2.441v6.581h1.641v-5.425a2.361,2.361,0,0,1,.112-.764,2.33,2.33,0,0,1,2.2-1.677c1.547,0,2.088,1.211,2.088,2.665v5.2h1.641v-5.387C2692.243,1874.356,2690.3,1873.611,2689.056,1873.611Z" transform="translate(-2657.613 -1869.603)"/><path class="f" d="M2752.127,1873.611c-2.5,0-4.474,1.771-4.474,4.79a4.29,4.29,0,0,0,4.325,4.642,4.409,4.409,0,0,0,4.492-4.791C2756.47,1875.493,2754.719,1873.611,2752.127,1873.611Zm-.074,8.2c-1.6,0-2.74-1.491-2.74-3.467,0-1.714.84-3.5,2.778-3.5s2.7,1.938,2.7,3.467C2754.793,1880.34,2753.618,1881.812,2752.052,1881.812Z" transform="translate(-2711.004 -1869.603)"/><path class="f" d="M2814.431,1858.189l-1.6.428v2.163h-1.4v1.249h1.4v4.921a3.344,3.344,0,0,0,.634,2.349,2.275,2.275,0,0,0,1.771.69,4.015,4.015,0,0,0,1.454-.224l-.075-1.23a3.677,3.677,0,0,1-.951.112c-.914,0-1.23-.634-1.23-1.752v-4.865h2.349v-1.249h-2.349Z" transform="translate(-2764.913 -1856.567)"/><path class="f" d="M2885.981,1877.3c0-1.808-.671-3.69-3.43-3.69a5.6,5.6,0,0,0-2.964.8l.373,1.081a4.5,4.5,0,0,1,2.348-.671,1.86,1.86,0,0,1,2.051,2.088v.187c-3.486-.019-5.424,1.174-5.424,3.355a2.57,2.57,0,0,0,2.758,2.591,3.36,3.36,0,0,0,2.759-1.342h.057l.13,1.137h1.491a12.711,12.711,0,0,1-.149-2.162Zm-1.584,2.5a1.735,1.735,0,0,1-.093.522,2.246,2.246,0,0,1-2.181,1.51,1.453,1.453,0,0,1-1.548-1.566c0-1.751,2.033-2.069,3.822-2.031Z" transform="translate(-2821.975 -1869.603)"/><path class="f" d="M2968.254,1875.586h-.075l-.056-1.771h-1.435c.055.838.074,1.752.074,2.815v6.207h1.622v-4.809a4.579,4.579,0,0,1,.075-.764,2.3,2.3,0,0,1,2.2-2.107,2.485,2.485,0,0,1,.56.056v-1.547a1.79,1.79,0,0,0-.467-.055A2.706,2.706,0,0,0,2968.254,1875.586Z" transform="translate(-2896.151 -1869.603)"/><path class="f" d="M3005.641,1873.611c-2.5,0-4.474,1.771-4.474,4.79a4.29,4.29,0,0,0,4.325,4.642,4.409,4.409,0,0,0,4.492-4.791C3009.984,1875.493,3008.233,1873.611,3005.641,1873.611Zm-.074,8.2c-1.6,0-2.74-1.491-2.74-3.467,0-1.714.839-3.5,2.778-3.5s2.7,1.938,2.7,3.467C3008.307,1880.34,3007.132,1881.812,3005.566,1881.812Z" transform="translate(-2925.295 -1869.603)"/><path class="f" d="M3075.894,1851.714a3.361,3.361,0,0,0-3.076,1.659h-.037v-5.667h-1.622v10.905c0,.8-.037,1.714-.074,2.33h1.417l.074-1.491h.055a3.216,3.216,0,0,0,3.021,1.7c2.013,0,4.045-1.6,4.045-4.828C3079.715,1853.578,3078.131,1851.714,3075.894,1851.714Zm-.577,8.127a2.533,2.533,0,0,1-2.461-1.92,3.09,3.09,0,0,1-.074-.6V1855.7a3.206,3.206,0,0,1,.093-.671,2.615,2.615,0,0,1,2.5-2.013c1.752,0,2.685,1.547,2.685,3.355C3078.057,1858.443,3077.031,1859.841,3075.317,1859.841Z" transform="translate(-2984.395 -1847.706)"/><path class="f" d="M3140.411,1873.611c-2.5,0-4.474,1.771-4.474,4.79a4.289,4.289,0,0,0,4.325,4.642,4.409,4.409,0,0,0,4.492-4.791C3144.754,1875.493,3143,1873.611,3140.411,1873.611Zm-.074,8.2c-1.6,0-2.741-1.491-2.741-3.467,0-1.714.839-3.5,2.778-3.5s2.7,1.938,2.7,3.467C3143.077,1880.34,3141.9,1881.812,3140.337,1881.812Z" transform="translate(-3039.214 -1869.603)"/><path class="f" d="M3205.064,1862.028v-1.249h-2.349v-2.591l-1.6.428v2.163h-1.4v1.249h1.4v4.921a3.344,3.344,0,0,0,.634,2.349,2.276,2.276,0,0,0,1.771.69,4.015,4.015,0,0,0,1.454-.224l-.074-1.23a3.681,3.681,0,0,1-.951.112c-.914,0-1.23-.634-1.23-1.752v-4.865Z" transform="translate(-3093.124 -1856.567)"/></g></g></svg>