<?xml version="1.0" standalone="no"?>
<!DOCTYPE svg PUBLIC "-//W3C//DTD SVG 20010904//EN"
 "http://www.w3.org/TR/2001/REC-SVG-20010904/DTD/svg10.dtd">
<svg version="1.0" xmlns="http://www.w3.org/2000/svg"
 width="700.000000pt" height="700.000000pt" viewBox="0 0 700.000000 700.000000"
 preserveAspectRatio="xMidYMid meet">
<metadata>
Created by potrace 1.14, written by Peter Selinger 2001-2017
</metadata>
<g transform="translate(0.000000,700.000000) scale(0.100000,-0.100000)"
fill="#000000" stroke="none">
<path d="M4984 5248 c-17 -12 -41 -36 -52 -53 -11 -16 -192 -388 -403 -825
-210 -437 -400 -833 -422 -879 -39 -81 -40 -85 -28 -130 33 -123 164 -161 232
-68 9 12 177 355 374 762 197 407 361 743 364 747 3 4 285 -497 626 -1114 341
-616 628 -1133 637 -1149 38 -63 109 -83 180 -50 92 41 112 113 62 213 -14 28
-320 583 -679 1232 -358 650 -667 1210 -686 1245 -20 37 -45 69 -61 77 -41 21
-108 18 -144 -8z"/>
<path d="M2530 5201 c-45 -14 -88 -40 -104 -63 -24 -33 -20 -101 8 -156 14
-27 326 -579 694 -1228 368 -648 677 -1194 686 -1212 19 -36 81 -72 126 -72
36 0 122 50 138 80 34 66 46 43 -674 1312 -774 1364 -737 1301 -767 1321 -30
19 -76 27 -107 18z"/>
<path d="M1664 4990 c-59 -26 -84 -62 -84 -121 0 -44 43 -127 621 -1181 342
-623 628 -1143 636 -1155 19 -32 56 -54 101 -60 30 -4 50 1 88 22 74 41 92 79
72 151 -10 39 -1237 2284 -1267 2318 -20 23 -72 46 -103 45 -13 0 -41 -9 -64
-19z"/>
<path d="M843 3398 c-16 -8 -84 -126 -218 -377 -207 -389 -212 -402 -181 -474
17 -42 80 -97 110 -97 22 0 90 43 112 71 6 8 91 165 190 349 159 298 178 339
177 380 -2 114 -101 191 -190 148z"/>
</g>
</svg>
